ffmpeg started on 2016-12-12 at 07:22:00
Report written to "Output/theora/results/ffmpeg/crowd_run_2160p508000k.log"
Command line:
Tools/ffmpeg/ffmpeg -benchmark -y -i Input/y4m/crowd_run_2160p50.y4m -c:v libtheora -b:v 8000k -an Output/theora/encoded/crowd_run_2160p508000k.mkv
ffmpeg version N-82227-gdb23fde Copyright (c) 2000-2016 the FFmpeg developers
  built with gcc 5.4.0 (Ubuntu 5.4.0-6ubuntu1~16.04.2) 20160609
  configuration: --prefix=/home/jaroslav/ffmpeg_build --pkg-config-flags=--static --extra-cflags=-I/home/jaroslav/ffmpeg_build/include --extra-ldflags=-L/home/jaroslav/ffmpeg_build/lib --bindir=/home/jaroslav/bin --enable-gpl --enable-libass --enable-libfdk-aac --enable-libfreetype --enable-libmp3lame --enable-libopus --enable-libtheora --enable-libvorbis --enable-libvpx --enable-libx264 --enable-libx265 --enable-nvenc --enable-libmfx --enable-libxvid --enable-libgsm --enable-libopencore-amrnb --enable-version3 --enable-nonfree
  libavutil      55. 35.100 / 55. 35.100
  libavcodec     57. 66.101 / 57. 66.101
  libavformat    57. 57.100 / 57. 57.100
  libavdevice    57.  2.100 / 57.  2.100
  libavfilter     6. 66.100 /  6. 66.100
  libswscale      4.  3.100 /  4.  3.100
  libswresample   2.  4.100 /  2.  4.100
  libpostproc    54.  2.100 / 54.  2.100
Input #0, yuv4mpegpipe, from 'Input/y4m/crowd_run_2160p50.y4m':
  Duration: 00:00:10.00, start: 0.000000, bitrate: 4976642 kb/s
    Stream #0:0: Video: rawvideo (I420 / 0x30323449), yuv420p(progressive), 3840x2160, SAR 1:1 DAR 16:9, 50 fps, 50 tbr, 50 tbn, 50 tbc
Output #0, matroska, to 'Output/theora/encoded/crowd_run_2160p508000k.mkv':
  Metadata:
    encoder         : Lavf57.57.100
    Stream #0:0: Video: theora (libtheora) (theo / 0x6F656874), yuv420p, 3840x2160 [SAR 1:1 DAR 16:9], q=2-31, 8000 kb/s, 50 fps, 1k tbn, 50 tbc
    Metadata:
      encoder         : Lavc57.66.101 libtheora
Stream mapping:
  Stream #0:0 -> #0:0 (rawvideo (native) -> theora (libtheora))
Press [q] to stop, [?] for help
frame=    3 fps=0.0 q=-0.0 size=       4kB time=00:00:00.04 bitrate= 779.5kbits/s speed=0.0487x    frame=    5 fps=3.3 q=-0.0 size=       4kB time=00:00:00.08 bitrate= 394.6kbits/s speed=0.0532x    frame=    7 fps=3.2 q=-0.0 size=       4kB time=00:00:00.12 bitrate= 264.1kbits/s speed=0.0548x    frame=    9 fps=3.1 q=-0.0 size=       4kB time=00:00:00.16 bitrate= 198.5kbits/s speed=0.0556x    frame=   11 fps=3.1 q=-0.0 size=       4kB time=00:00:00.20 bitrate= 159.0kbits/s speed=0.056x    frame=   13 fps=3.0 q=-0.0 size=     500kB time=00:00:00.24 bitrate=17006.2kbits/s speed=0.0563x    frame=   15 fps=3.1 q=-0.0 size=     500kB time=00:00:00.28 bitrate=14585.4kbits/s speed=0.0585x    frame=   16 fps=1.8 q=-0.0 size=     500kB time=00:00:00.30 bitrate=13616.3kbits/s speed=0.033x    frame=   17 fps=1.6 q=-0.0 size=     500kB time=00:00:00.32 bitrate=12767.9kbits/s speed=0.0306x    frame=   19 fps=1.7 q=-0.0 size=     500kB time=00:00:00.36 bitrate=11353.2kbits/s speed=0.0323x    frame=   21 fps=1.8 q=-0.0 size=     500kB time=00:00:00.40 bitrate=10220.7kbits/s speed=0.0337x    frame=   23 fps=1.8 q=-0.0 size=     500kB time=00:00:00.44 bitrate=9293.7kbits/s speed=0.035x    frame=   25 fps=1.9 q=-0.0 size=    1011kB time=00:00:00.48 bitrate=17221.8kbits/s speed=0.0362x    frame=   27 fps=2.0 q=-0.0 size=    1011kB time=00:00:00.52 bitrate=15899.6kbits/s speed=0.0377x    frame=   29 fps=2.0 q=-0.0 size=    1011kB time=00:00:00.56 bitrate=14765.9kbits/s speed=0.0386x    frame=   30 fps=2.0 q=-0.0 size=    1011kB time=00:00:00.58 bitrate=14257.6kbits/s speed=0.0385x    frame=   32 fps=2.0 q=-0.0 size=    1011kB time=00:00:00.62 bitrate=13339.2kbits/s speed=0.0394x    frame=   34 fps=2.1 q=-0.0 size=    1011kB time=00:00:00.66 bitrate=12532.0kbits/s speed=0.0401x    frame=   36 fps=2.1 q=-0.0 size=    1011kB time=00:00:00.70 bitrate=11816.9kbits/s speed=0.0408x    frame=   38 fps=2.1 q=-0.0 size=    1516kB time=00:00:00.74 bitrate=16759.8kbits/s speed=0.0417x    frame=   40 fps=2.2 q=-0.0 size=    1516kB time=00:00:00.78 bitrate=15901.4kbits/s speed=0.0424x    frame=   42 fps=2.2 q=-0.0 size=    1516kB time=00:00:00.82 bitrate=15126.6kbits/s speed=0.0429x    frame=   44 fps=2.2 q=-0.0 size=    1516kB time=00:00:00.86 bitrate=14423.9kbits/s speed=0.0434x    frame=   45 fps=2.2 q=-0.0 size=    1516kB time=00:00:00.88 bitrate=14096.5kbits/s speed=0.043x    frame=   47 fps=2.2 q=-0.0 size=    1516kB time=00:00:00.92 bitrate=13484.2kbits/s speed=0.0434x    frame=   49 fps=2.2 q=-0.0 size=    1859kB time=00:00:00.96 bitrate=15847.1kbits/s speed=0.0438x    frame=   51 fps=2.3 q=-0.0 size=    1859kB time=00:00:01.00 bitrate=15213.9kbits/s speed=0.0446x    frame=   53 fps=2.3 q=-0.0 size=    1859kB time=00:00:01.04 bitrate=14629.3kbits/s speed=0.0451x    frame=   55 fps=2.3 q=-0.0 size=    1859kB time=00:00:01.08 bitrate=14087.9kbits/s speed=0.0454x    frame=   57 fps=2.3 q=-0.0 size=    1859kB time=00:00:01.12 bitrate=13585.2kbits/s speed=0.0457x    frame=   59 fps=2.3 q=-0.0 size=    1859kB time=00:00:01.16 bitrate=13117.2kbits/s speed=0.046x    frame=   61 fps=2.4 q=-0.0 size=    2112kB time=00:00:01.20 bitrate=14403.2kbits/s speed=0.0464x    frame=   63 fps=2.4 q=-0.0 size=    2112kB time=00:00:01.24 bitrate=13938.9kbits/s speed=0.047x    frame=   65 fps=2.4 q=-0.0 size=    2112kB time=00:00:01.28 bitrate=13503.7kbits/s speed=0.0473x    frame=   66 fps=2.4 q=-0.0 size=    2112kB time=00:00:01.30 bitrate=13296.1kbits/s speed=0.047x    frame=   68 fps=2.4 q=-0.0 size=    2112kB time=00:00:01.34 bitrate=12899.5kbits/s speed=0.0472x    frame=   70 fps=2.4 q=-0.0 size=    2112kB time=00:00:01.38 bitrate=12525.9kbits/s speed=0.0474x    frame=   72 fps=2.4 q=-0.0 size=    2112kB time=00:00:01.42 bitrate=12173.3kbits/s speed=0.0476x    frame=   74 fps=2.4 q=-0.0 size=    2316kB time=00:00:01.46 bitrate=12985.8kbits/s speed=0.0476x    frame=   76 fps=2.4 q=-0.0 size=    2316kB time=00:00:01.50 bitrate=12639.8kbits/s speed=0.0473x    frame=   78 fps=2.4 q=-0.0 size=    2316kB time=00:00:01.54 bitrate=12311.7kbits/s speed=0.0476x    frame=   80 fps=2.4 q=-0.0 size=    2316kB time=00:00:01.58 bitrate=12000.2kbits/s speed=0.0478x    frame=   82 fps=2.4 q=-0.0 size=    2316kB time=00:00:01.62 bitrate=11704.1kbits/s speed=0.048x    frame=   83 fps=2.4 q=-0.0 size=    2316kB time=00:00:01.64 bitrate=11561.4kbits/s speed=0.0476x    frame=   85 fps=2.4 q=-0.0 size=    2575kB time=00:00:01.68 bitrate=12548.4kbits/s speed=0.0478x    frame=   87 fps=2.4 q=-0.0 size=    2575kB time=00:00:01.72 bitrate=12256.8kbits/s speed=0.0482x    frame=   89 fps=2.4 q=-0.0 size=    2575kB time=00:00:01.76 bitrate=11978.4kbits/s speed=0.0484x    frame=   91 fps=2.5 q=-0.0 size=    2575kB time=00:00:01.80 bitrate=11712.4kbits/s speed=0.0486x    frame=   93 fps=2.5 q=-0.0 size=    2575kB time=00:00:01.84 bitrate=11457.9kbits/s speed=0.0488x    frame=   95 fps=2.5 q=-0.0 size=    2575kB time=00:00:01.88 bitrate=11214.2kbits/s speed=0.0489x    frame=   97 fps=2.5 q=-0.0 size=    2817kB time=00:00:01.92 bitrate=12012.9kbits/s speed=0.0491x    frame=   99 fps=2.5 q=-0.0 size=    2817kB time=00:00:01.96 bitrate=11767.9kbits/s speed=0.0495x    frame=  101 fps=2.5 q=-0.0 size=    2817kB time=00:00:02.00 bitrate=11532.6kbits/s speed=0.0496x    frame=  102 fps=2.5 q=-0.0 size=    2817kB time=00:00:02.02 bitrate=11418.5kbits/s speed=0.0491x    frame=  104 fps=2.5 q=-0.0 size=    2817kB time=00:00:02.06 bitrate=11196.9kbits/s speed=0.0492x    frame=  106 fps=2.5 q=-0.0 size=    2817kB time=00:00:02.10 bitrate=10983.7kbits/s speed=0.0494x    frame=  108 fps=2.5 q=-0.0 size=    2817kB time=00:00:02.14 bitrate=10778.5kbits/s speed=0.0495x    frame=  110 fps=2.5 q=-0.0 size=    3009kB time=00:00:02.18 bitrate=11302.6kbits/s speed=0.0498x    frame=  112 fps=2.5 q=-0.0 size=    3009kB time=00:00:02.22 bitrate=11099.0kbits/s speed=0.05x    frame=  114 fps=2.5 q=-0.0 size=    3009kB time=00:00:02.26 bitrate=10902.7kbits/s speed=0.0501x    frame=  116 fps=2.5 q=-0.0 size=    3009kB time=00:00:02.30 bitrate=10713.1kbits/s speed=0.0502x    frame=  118 fps=2.5 q=-0.0 size=    3009kB time=00:00:02.34 bitrate=10530.1kbits/s speed=0.0503x    frame=  120 fps=2.5 q=-0.0 size=    3009kB time=00:00:02.38 bitrate=10353.2kbits/s speed=0.0504x    frame=  122 fps=2.6 q=-0.0 size=    3255kB time=00:00:02.42 bitrate=11013.8kbits/s speed=0.0507x    frame=  124 fps=2.6 q=-0.0 size=    3255kB time=00:00:02.46 bitrate=10834.7kbits/s speed=0.0509x    frame=  126 fps=2.6 q=-0.0 size=    3255kB time=00:00:02.50 bitrate=10661.5kbits/s speed=0.051x    frame=  128 fps=2.6 q=-0.0 size=    3255kB time=00:00:02.54 bitrate=10493.6kbits/s speed=0.0511x    frame=  130 fps=2.6 q=-0.0 size=    3255kB time=00:00:02.58 bitrate=10331.0kbits/s speed=0.0512x    frame=  132 fps=2.6 q=-0.0 size=    3255kB time=00:00:02.62 bitrate=10173.3kbits/s speed=0.0513x    frame=  134 fps=2.6 q=-0.0 size=    3509kB time=00:00:02.66 bitrate=10802.5kbits/s speed=0.0515x    frame=  136 fps=2.6 q=-0.0 size=    3509kB time=00:00:02.70 bitrate=10642.5kbits/s speed=0.0516x    frame=  138 fps=2.6 q=-0.0 size=    3509kB time=00:00:02.74 bitrate=10487.2kbits/s speed=0.0517x    frame=  140 fps=2.6 q=-0.0 size=    3509kB time=00:00:02.78 bitrate=10336.4kbits/s speed=0.0518x    frame=  142 fps=2.6 q=-0.0 size=    3509kB time=00:00:02.82 bitrate=10189.8kbits/s speed=0.0519x    frame=  144 fps=2.6 q=-0.0 size=    3509kB time=00:00:02.86 bitrate=10047.3kbits/s speed=0.0519x    frame=  146 fps=2.6 q=-0.0 size=    3700kB time=00:00:02.90 bitrate=10449.1kbits/s speed=0.0521x    frame=  148 fps=2.6 q=-0.0 size=    3700kB time=00:00:02.94 bitrate=10307.0kbits/s speed=0.0522x    frame=  150 fps=2.6 q=-0.0 size=    3700kB time=00:00:02.98 bitrate=10168.7kbits/s speed=0.0523x    frame=  152 fps=2.6 q=-0.0 size=    3700kB time=00:00:03.02 bitrate=10034.0kbits/s speed=0.0524x    frame=  154 fps=2.6 q=-0.0 size=    3700kB time=00:00:03.06 bitrate=9902.9kbits/s speed=0.0524x    frame=  156 fps=2.6 q=-0.0 size=    3700kB time=00:00:03.10 bitrate=9775.2kbits/s speed=0.0525x    frame=  158 fps=2.7 q=-0.0 size=    3944kB time=00:00:03.14 bitrate=10286.3kbits/s speed=0.0527x    frame=  160 fps=2.7 q=-0.0 size=    3944kB time=00:00:03.18 bitrate=10157.0kbits/s speed=0.0528x    frame=  162 fps=2.7 q=-0.0 size=    3944kB time=00:00:03.22 bitrate=10030.8kbits/s speed=0.0528x    frame=  164 fps=2.7 q=-0.0 size=    3944kB time=00:00:03.26 bitrate=9907.8kbits/s speed=0.0529x    frame=  166 fps=2.7 q=-0.0 size=    3944kB time=00:00:03.30 bitrate=9787.7kbits/s speed=0.0529x    frame=  168 fps=2.7 q=-0.0 size=    3944kB time=00:00:03.34 bitrate=9670.6kbits/s speed=0.053x    frame=  170 fps=2.7 q=-0.0 size=    4194kB time=00:00:03.38 bitrate=10162.0kbits/s speed=0.0532x    frame=  172 fps=2.7 q=-0.0 size=    4194kB time=00:00:03.42 bitrate=10043.2kbits/s speed=0.0533x    frame=  174 fps=2.7 q=-0.0 size=    4194kB time=00:00:03.46 bitrate=9927.1kbits/s speed=0.0533x    frame=  176 fps=2.7 q=-0.0 size=    4194kB time=00:00:03.50 bitrate=9813.7kbits/s speed=0.0533x    frame=  178 fps=2.7 q=-0.0 size=    4194kB time=00:00:03.54 bitrate=9702.9kbits/s speed=0.0534x    frame=  180 fps=2.7 q=-0.0 size=    4194kB time=00:00:03.58 bitrate=9594.5kbits/s speed=0.0534x    frame=  182 fps=2.7 q=-0.0 size=    4437kB time=00:00:03.62 bitrate=10038.9kbits/s speed=0.0536x    frame=  184 fps=2.7 q=-0.0 size=    4437kB time=00:00:03.66 bitrate=9929.2kbits/s speed=0.0537x    frame=  186 fps=2.7 q=-0.0 size=    4437kB time=00:00:03.70 bitrate=9821.9kbits/s speed=0.0537x    frame=  188 fps=2.7 q=-0.0 size=    4437kB time=00:00:03.74 bitrate=9716.9kbits/s speed=0.0537x    frame=  190 fps=2.7 q=-0.0 size=    4437kB time=00:00:03.78 bitrate=9614.1kbits/s speed=0.0538x    frame=  192 fps=2.7 q=-0.0 size=    4437kB time=00:00:03.82 bitrate=9513.4kbits/s speed=0.0538x    frame=  194 fps=2.7 q=-0.0 size=    4632kB time=00:00:03.86 bitrate=9828.0kbits/s speed=0.054x    frame=  196 fps=2.7 q=-0.0 size=    4632kB time=00:00:03.90 bitrate=9727.3kbits/s speed=0.054x    frame=  198 fps=2.7 q=-0.0 size=    4632kB time=00:00:03.94 bitrate=9628.5kbits/s speed=0.0541x    frame=  200 fps=2.7 q=-0.0 size=    4632kB time=00:00:03.98 bitrate=9531.8kbits/s speed=0.0541x    frame=  202 fps=2.7 q=-0.0 size=    4632kB time=00:00:04.02 bitrate=9437.0kbits/s speed=0.0541x    frame=  204 fps=2.7 q=-0.0 size=    4632kB time=00:00:04.06 bitrate=9344.0kbits/s speed=0.0541x    frame=  206 fps=2.7 q=-0.0 size=    4885kB time=00:00:04.10 bitrate=9757.7kbits/s speed=0.0543x    frame=  208 fps=2.7 q=-0.0 size=    4885kB time=00:00:04.14 bitrate=9663.5kbits/s speed=0.0543x    frame=  210 fps=2.7 q=-0.0 size=    4885kB time=00:00:04.18 bitrate=9571.0kbits/s speed=0.0544x    frame=  212 fps=2.7 q=-0.0 size=    4885kB time=00:00:04.22 bitrate=9480.3kbits/s speed=0.0544x    frame=  214 fps=2.7 q=-0.0 size=    4885kB time=00:00:04.26 bitrate=9391.3kbits/s speed=0.0544x    frame=  216 fps=2.7 q=-0.0 size=    4885kB time=00:00:04.30 bitrate=9304.0kbits/s speed=0.0544x    frame=  218 fps=2.7 q=-0.0 size=    5121kB time=00:00:04.34 bitrate=9664.9kbits/s speed=0.0546x    frame=  220 fps=2.7 q=-0.0 size=    5121kB time=00:00:04.38 bitrate=9576.6kbits/s speed=0.0546x    frame=  222 fps=2.7 q=-0.0 size=    5121kB time=00:00:04.42 bitrate=9490.0kbits/s speed=0.0547x    frame=  224 fps=2.7 q=-0.0 size=    5121kB time=00:00:04.46 bitrate=9404.9kbits/s speed=0.0547x    frame=  226 fps=2.7 q=-0.0 size=    5121kB time=00:00:04.50 bitrate=9321.3kbits/s speed=0.0547x    frame=  228 fps=2.7 q=-0.0 size=    5121kB time=00:00:04.54 bitrate=9239.2kbits/s speed=0.0547x    frame=  230 fps=2.8 q=-0.0 size=    5377kB time=00:00:04.58 bitrate=9615.0kbits/s speed=0.0549x    frame=  232 fps=2.8 q=-0.0 size=    5377kB time=00:00:04.62 bitrate=9531.8kbits/s speed=0.0549x    frame=  234 fps=2.8 q=-0.0 size=    5377kB time=00:00:04.66 bitrate=9450.0kbits/s speed=0.0549x    frame=  236 fps=2.8 q=-0.0 size=    5377kB time=00:00:04.70 bitrate=9369.5kbits/s speed=0.0549x    frame=  238 fps=2.8 q=-0.0 size=    5377kB time=00:00:04.74 bitrate=9290.5kbits/s speed=0.0549x    frame=  240 fps=2.8 q=-0.0 size=    5377kB time=00:00:04.78 bitrate=9212.8kbits/s speed=0.055x    frame=  242 fps=2.8 q=-0.0 size=    5587kB time=00:00:04.82 bitrate=9492.9kbits/s speed=0.0551x    frame=  244 fps=2.8 q=-0.0 size=    5587kB time=00:00:04.86 bitrate=9414.8kbits/s speed=0.0551x    frame=  246 fps=2.8 q=-0.0 size=    5587kB time=00:00:04.90 bitrate=9337.9kbits/s speed=0.0551x    frame=  248 fps=2.8 q=-0.0 size=    5587kB time=00:00:04.94 bitrate=9262.3kbits/s speed=0.0552x    frame=  250 fps=2.8 q=-0.0 size=    5587kB time=00:00:04.98 bitrate=9187.9kbits/s speed=0.0552x    frame=  252 fps=2.8 q=-0.0 size=    5587kB time=00:00:05.02 bitrate=9114.7kbits/s speed=0.0552x    frame=  254 fps=2.8 q=-0.0 size=    5846kB time=00:00:05.06 bitrate=9461.9kbits/s speed=0.0553x    frame=  256 fps=2.8 q=-0.0 size=    5846kB time=00:00:05.10 bitrate=9387.7kbits/s speed=0.0553x    frame=  258 fps=2.8 q=-0.0 size=    5846kB time=00:00:05.14 bitrate=9314.7kbits/s speed=0.0554x    frame=  260 fps=2.8 q=-0.0 size=    5846kB time=00:00:05.18 bitrate=9242.8kbits/s speed=0.0554x    frame=  262 fps=2.8 q=-0.0 size=    5846kB time=00:00:05.22 bitrate=9172.0kbits/s speed=0.0554x    frame=  264 fps=2.8 q=-0.0 size=    5846kB time=00:00:05.26 bitrate=9102.2kbits/s speed=0.0554x    frame=  266 fps=2.8 q=-0.0 size=    6100kB time=00:00:05.30 bitrate=9426.2kbits/s speed=0.0555x    frame=  268 fps=2.8 q=-0.0 size=    6100kB time=00:00:05.34 bitrate=9355.6kbits/s speed=0.0555x    frame=  270 fps=2.8 q=-0.0 size=    6100kB time=00:00:05.38 bitrate=9286.1kbits/s speed=0.0556x    frame=  272 fps=2.8 q=-0.0 size=    6100kB time=00:00:05.42 bitrate=9217.5kbits/s speed=0.0556x    frame=  274 fps=2.8 q=-0.0 size=    6100kB time=00:00:05.46 bitrate=9150.0kbits/s speed=0.0556x    frame=  276 fps=2.8 q=-0.0 size=    6100kB time=00:00:05.50 bitrate=9083.5kbits/s speed=0.0556x    frame=  278 fps=2.8 q=-0.0 size=    6304kB time=00:00:05.54 bitrate=9320.1kbits/s speed=0.0557x    frame=  280 fps=2.8 q=-0.0 size=    6304kB time=00:00:05.58 bitrate=9253.3kbits/s speed=0.0557x    frame=  282 fps=2.8 q=-0.0 size=    6304kB time=00:00:05.62 bitrate=9187.5kbits/s speed=0.0557x    frame=  284 fps=2.8 q=-0.0 size=    6304kB time=00:00:05.66 bitrate=9122.6kbits/s speed=0.0557x    frame=  286 fps=2.8 q=-0.0 size=    6304kB time=00:00:05.70 bitrate=9058.6kbits/s speed=0.0557x    frame=  288 fps=2.8 q=-0.0 size=    6304kB time=00:00:05.74 bitrate=8995.5kbits/s speed=0.0558x    frame=  290 fps=2.8 q=-0.0 size=    6508kB time=00:00:05.78 bitrate=9222.6kbits/s speed=0.0558x    frame=  292 fps=2.8 q=-0.0 size=    6508kB time=00:00:05.82 bitrate=9159.3kbits/s speed=0.0559x    frame=  294 fps=2.8 q=-0.0 size=    6508kB time=00:00:05.86 bitrate=9096.8kbits/s speed=0.0559x    frame=  296 fps=2.8 q=-0.0 size=    6508kB time=00:00:05.90 bitrate=9035.1kbits/s speed=0.0559x    frame=  298 fps=2.8 q=-0.0 size=    6508kB time=00:00:05.94 bitrate=8974.3kbits/s speed=0.0559x    frame=  300 fps=2.8 q=-0.0 size=    6508kB time=00:00:05.98 bitrate=8914.2kbits/s speed=0.0559x    frame=  302 fps=2.8 q=-0.0 size=    6760kB time=00:00:06.02 bitrate=9197.9kbits/s speed=0.056x    frame=  304 fps=2.8 q=-0.0 size=    6760kB time=00:00:06.06 bitrate=9137.2kbits/s speed=0.056x    frame=  306 fps=2.8 q=-0.0 size=    6760kB time=00:00:06.10 bitrate=9077.3kbits/s speed=0.056x    frame=  308 fps=2.8 q=-0.0 size=    6760kB time=00:00:06.14 bitrate=9018.2kbits/s speed=0.056x    frame=  310 fps=2.8 q=-0.0 size=    6760kB time=00:00:06.18 bitrate=8959.8kbits/s speed=0.056x    frame=  312 fps=2.8 q=-0.0 size=    6760kB time=00:00:06.22 bitrate=8902.2kbits/s speed=0.056x    frame=  314 fps=2.8 q=-0.0 size=    7033kB time=00:00:06.26 bitrate=9201.5kbits/s speed=0.0561x    frame=  316 fps=2.8 q=-0.0 size=    7033kB time=00:00:06.30 bitrate=9143.1kbits/s speed=0.0561x    frame=  318 fps=2.8 q=-0.0 size=    7033kB time=00:00:06.34 bitrate=9085.4kbits/s speed=0.0561x    frame=  320 fps=2.8 q=-0.0 size=    7033kB time=00:00:06.38 bitrate=9028.5kbits/s speed=0.0561x    frame=  322 fps=2.8 q=-0.0 size=    7033kB time=00:00:06.42 bitrate=8972.2kbits/s speed=0.0561x    frame=  324 fps=2.8 q=-0.0 size=    7033kB time=00:00:06.46 bitrate=8916.7kbits/s speed=0.0561x    frame=  326 fps=2.8 q=-0.0 size=    7244kB time=00:00:06.50 bitrate=9127.6kbits/s speed=0.0562x    frame=  328 fps=2.8 q=-0.0 size=    7244kB time=00:00:06.54 bitrate=9071.8kbits/s speed=0.0562x    frame=  330 fps=2.8 q=-0.0 size=    7244kB time=00:00:06.58 bitrate=9016.7kbits/s speed=0.0562x    frame=  332 fps=2.8 q=-0.0 size=    7244kB time=00:00:06.62 bitrate=8962.2kbits/s speed=0.0562x    frame=  334 fps=2.8 q=-0.0 size=    7244kB time=00:00:06.66 bitrate=8908.4kbits/s speed=0.0562x    frame=  336 fps=2.8 q=-0.0 size=    7244kB time=00:00:06.70 bitrate=8855.2kbits/s speed=0.0562x    frame=  338 fps=2.8 q=-0.0 size=    7448kB time=00:00:06.74 bitrate=9050.9kbits/s speed=0.0563x    frame=  340 fps=2.8 q=-0.0 size=    7448kB time=00:00:06.78 bitrate=8997.5kbits/s speed=0.0563x    frame=  342 fps=2.8 q=-0.0 size=    7448kB time=00:00:06.82 bitrate=8944.7kbits/s speed=0.0563x    frame=  344 fps=2.8 q=-0.0 size=    7448kB time=00:00:06.86 bitrate=8892.6kbits/s speed=0.0563x    frame=  346 fps=2.8 q=-0.0 size=    7448kB time=00:00:06.90 bitrate=8841.0kbits/s speed=0.0563x    frame=  348 fps=2.8 q=-0.0 size=    7448kB time=00:00:06.94 bitrate=8790.1kbits/s speed=0.0563x    frame=  350 fps=2.8 q=-0.0 size=    7714kB time=00:00:06.98 bitrate=9052.2kbits/s speed=0.0564x    frame=  352 fps=2.8 q=-0.0 size=    7714kB time=00:00:07.02 bitrate=9000.7kbits/s speed=0.0564x    frame=  354 fps=2.8 q=-0.0 size=    7714kB time=00:00:07.06 bitrate=8949.7kbits/s speed=0.0564x    frame=  356 fps=2.8 q=-0.0 size=    7714kB time=00:00:07.10 bitrate=8899.3kbits/s speed=0.0564x    frame=  358 fps=2.8 q=-0.0 size=    7714kB time=00:00:07.14 bitrate=8849.4kbits/s speed=0.0564x    frame=  360 fps=2.8 q=-0.0 size=    7714kB time=00:00:07.18 bitrate=8800.1kbits/s speed=0.0564x    frame=  362 fps=2.8 q=-0.0 size=    7914kB time=00:00:07.22 bitrate=8978.6kbits/s speed=0.0565x    frame=  364 fps=2.8 q=-0.0 size=    7914kB time=00:00:07.26 bitrate=8929.2kbits/s speed=0.0565x    frame=  366 fps=2.8 q=-0.0 size=    7914kB time=00:00:07.30 bitrate=8880.3kbits/s speed=0.0565x    frame=  368 fps=2.8 q=-0.0 size=    7914kB time=00:00:07.34 bitrate=8831.9kbits/s speed=0.0565x    frame=  370 fps=2.8 q=-0.0 size=    7914kB time=00:00:07.38 bitrate=8784.0kbits/s speed=0.0565x    frame=  372 fps=2.8 q=-0.0 size=    7914kB time=00:00:07.42 bitrate=8736.7kbits/s speed=0.0565x    frame=  374 fps=2.8 q=-0.0 size=    8189kB time=00:00:07.46 bitrate=8991.6kbits/s speed=0.0566x    frame=  376 fps=2.8 q=-0.0 size=    8189kB time=00:00:07.50 bitrate=8943.6kbits/s speed=0.0566x    frame=  378 fps=2.8 q=-0.0 size=    8189kB time=00:00:07.54 bitrate=8896.2kbits/s speed=0.0566x    frame=  380 fps=2.8 q=-0.0 size=    8189kB time=00:00:07.58 bitrate=8849.3kbits/s speed=0.0566x    frame=  382 fps=2.8 q=-0.0 size=    8189kB time=00:00:07.62 bitrate=8802.8kbits/s speed=0.0566x    frame=  384 fps=2.8 q=-0.0 size=    8189kB time=00:00:07.66 bitrate=8756.9kbits/s speed=0.0566x    frame=  386 fps=2.8 q=-0.0 size=    8400kB time=00:00:07.70 bitrate=8935.1kbits/s speed=0.0566x    frame=  387 fps=2.8 q=-0.0 size=    8400kB time=00:00:07.72 bitrate=8912.0kbits/s speed=0.0565x    frame=  389 fps=2.8 q=-0.0 size=    8400kB time=00:00:07.76 bitrate=8866.0kbits/s speed=0.0565x    frame=  391 fps=2.8 q=-0.0 size=    8400kB time=00:00:07.80 bitrate=8820.6kbits/s speed=0.0565x    frame=  393 fps=2.8 q=-0.0 size=    8400kB time=00:00:07.84 bitrate=8775.6kbits/s speed=0.0565x    frame=  395 fps=2.8 q=-0.0 size=    8400kB time=00:00:07.88 bitrate=8731.0kbits/s speed=0.0565x    frame=  397 fps=2.8 q=-0.0 size=    8610kB time=00:00:07.92 bitrate=8904.5kbits/s speed=0.0565x    frame=  399 fps=2.8 q=-0.0 size=    8610kB time=00:00:07.96 bitrate=8859.7kbits/s speed=0.0565x    frame=  401 fps=2.8 q=-0.0 size=    8610kB time=00:00:08.00 bitrate=8815.5kbits/s speed=0.0565x    frame=  403 fps=2.8 q=-0.0 size=    8610kB time=00:00:08.04 bitrate=8771.6kbits/s speed=0.0564x    frame=  404 fps=2.8 q=-0.0 size=    8610kB time=00:00:08.06 bitrate=8749.8kbits/s speed=0.0564x    frame=  406 fps=2.8 q=-0.0 size=    8610kB time=00:00:08.10 bitrate=8706.6kbits/s speed=0.0563x    frame=  408 fps=2.8 q=-0.0 size=    8610kB time=00:00:08.14 bitrate=8663.9kbits/s speed=0.0563x    frame=  410 fps=2.8 q=-0.0 size=    8901kB time=00:00:08.18 bitrate=8913.2kbits/s speed=0.0564x    frame=  412 fps=2.8 q=-0.0 size=    8901kB time=00:00:08.22 bitrate=8869.9kbits/s speed=0.0564x    frame=  414 fps=2.8 q=-0.0 size=    8901kB time=00:00:08.26 bitrate=8826.9kbits/s speed=0.0564x    frame=  416 fps=2.8 q=-0.0 size=    8901kB time=00:00:08.30 bitrate=8784.4kbits/s speed=0.0564x    frame=  418 fps=2.8 q=-0.0 size=    8901kB time=00:00:08.34 bitrate=8742.3kbits/s speed=0.0564x    frame=  420 fps=2.8 q=-0.0 size=    8901kB time=00:00:08.38 bitrate=8700.5kbits/s speed=0.0564x    frame=  422 fps=2.8 q=-0.0 size=    9105kB time=00:00:08.42 bitrate=8857.5kbits/s speed=0.0564x    frame=  424 fps=2.8 q=-0.0 size=    9105kB time=00:00:08.46 bitrate=8815.6kbits/s speed=0.0564x    frame=  426 fps=2.8 q=-0.0 size=    9105kB time=00:00:08.50 bitrate=8774.1kbits/s speed=0.0564x    frame=  428 fps=2.8 q=-0.0 size=    9105kB time=00:00:08.54 bitrate=8733.0kbits/s speed=0.0564x    frame=  430 fps=2.8 q=-0.0 size=    9105kB time=00:00:08.58 bitrate=8692.3kbits/s speed=0.0564x    frame=  432 fps=2.8 q=-0.0 size=    9105kB time=00:00:08.62 bitrate=8652.0kbits/s speed=0.0564x    frame=  434 fps=2.8 q=-0.0 size=    9310kB time=00:00:08.66 bitrate=8805.7kbits/s speed=0.0565x    frame=  436 fps=2.8 q=-0.0 size=    9310kB time=00:00:08.70 bitrate=8765.2kbits/s speed=0.0564x    frame=  438 fps=2.8 q=-0.0 size=    9310kB time=00:00:08.74 bitrate=8725.1kbits/s speed=0.0564x    frame=  440 fps=2.8 q=-0.0 size=    9310kB time=00:00:08.78 bitrate=8685.4kbits/s speed=0.0564x    frame=  442 fps=2.8 q=-0.0 size=    9310kB time=00:00:08.82 bitrate=8646.0kbits/s speed=0.0564x    frame=  444 fps=2.8 q=-0.0 size=    9310kB time=00:00:08.86 bitrate=8607.0kbits/s speed=0.0563x    frame=  446 fps=2.8 q=-0.0 size=    9602kB time=00:00:08.90 bitrate=8837.1kbits/s speed=0.0563x    frame=  448 fps=2.8 q=-0.0 size=    9602kB time=00:00:08.94 bitrate=8797.5kbits/s speed=0.0563x    frame=  450 fps=2.8 q=-0.0 size=    9602kB time=00:00:08.98 bitrate=8758.3kbits/s speed=0.0563x    frame=  452 fps=2.8 q=-0.0 size=    9602kB time=00:00:09.02 bitrate=8719.5kbits/s speed=0.0563x    frame=  454 fps=2.8 q=-0.0 size=    9602kB time=00:00:09.06 bitrate=8681.0kbits/s speed=0.0563x    frame=  456 fps=2.8 q=-0.0 size=    9602kB time=00:00:09.10 bitrate=8642.9kbits/s speed=0.0563x    frame=  458 fps=2.8 q=-0.0 size=    9815kB time=00:00:09.14 bitrate=8795.7kbits/s speed=0.0563x    frame=  460 fps=2.8 q=-0.0 size=    9815kB time=00:00:09.18 bitrate=8757.4kbits/s speed=0.0564x    frame=  462 fps=2.8 q=-0.0 size=    9815kB time=00:00:09.22 bitrate=8719.4kbits/s speed=0.0564x    frame=  464 fps=2.8 q=-0.0 size=    9815kB time=00:00:09.26 bitrate=8681.7kbits/s speed=0.0563x    frame=  466 fps=2.8 q=-0.0 size=    9815kB time=00:00:09.30 bitrate=8644.4kbits/s speed=0.0563x    frame=  468 fps=2.8 q=-0.0 size=    9815kB time=00:00:09.34 bitrate=8607.4kbits/s speed=0.0563x    frame=  470 fps=2.8 q=-0.0 size=   10023kB time=00:00:09.38 bitrate=8752.7kbits/s speed=0.0564x    frame=  472 fps=2.8 q=-0.0 size=   10023kB time=00:00:09.42 bitrate=8715.5kbits/s speed=0.0564x    frame=  474 fps=2.8 q=-0.0 size=   10023kB time=00:00:09.46 bitrate=8678.7kbits/s speed=0.0564x    frame=  476 fps=2.8 q=-0.0 size=   10023kB time=00:00:09.50 bitrate=8642.2kbits/s speed=0.0564x    frame=  478 fps=2.8 q=-0.0 size=   10023kB time=00:00:09.54 bitrate=8605.9kbits/s speed=0.0563x    frame=  480 fps=2.8 q=-0.0 size=   10023kB time=00:00:09.58 bitrate=8570.0kbits/s speed=0.0563x    frame=  482 fps=2.8 q=-0.0 size=   10306kB time=00:00:09.62 bitrate=8775.6kbits/s speed=0.0564x    frame=  484 fps=2.8 q=-0.0 size=   10306kB time=00:00:09.66 bitrate=8739.3kbits/s speed=0.0564x    frame=  486 fps=2.8 q=-0.0 size=   10306kB time=00:00:09.70 bitrate=8703.3kbits/s speed=0.0564x    frame=  488 fps=2.8 q=-0.0 size=   10306kB time=00:00:09.74 bitrate=8667.5kbits/s speed=0.0563x    frame=  490 fps=2.8 q=-0.0 size=   10306kB time=00:00:09.78 bitrate=8632.1kbits/s speed=0.0563x    frame=  492 fps=2.8 q=-0.0 size=   10306kB time=00:00:09.82 bitrate=8596.9kbits/s speed=0.0563x    frame=  494 fps=2.8 q=-0.0 size=   10509kB time=00:00:09.86 bitrate=8729.9kbits/s speed=0.0564x    frame=  496 fps=2.8 q=-0.0 size=   10509kB time=00:00:09.90 bitrate=8694.6kbits/s speed=0.0564x    frame=  498 fps=2.8 q=-0.0 size=   10509kB time=00:00:09.94 bitrate=8659.7kbits/s speed=0.0564x    frame=  500 fps=2.8 q=-0.0 size=   10509kB time=00:00:09.98 bitrate=8625.0kbits/s speed=0.0564x    frame=  500 fps=2.8 q=-0.0 Lsize=   10712kB time=00:00:09.98 bitrate=8791.8kbits/s speed=0.0563x    
video:10703kB audio:0kB subtitle:0kB other streams:0kB global headers:3kB muxing overhead: 0.082045%
bench: utime=156.244s
bench: maxrss=211056kB
